<svg id="svg" version="1.1" xmlns="http://www.w3.org/2000/svg" xmlns:xlink="http://www.w3.org/1999/xlink" width="400" height="400" viewBox="0, 0, 400,400"><g id="svgg"><path id="path0" d="M185.625 30.907 C 153.908 33.391,126.700 42.624,101.767 59.364 C 21.291 113.394,2.622 224.066,60.896 301.657 C 122.981 384.322,244.694 392.189,317.129 318.219 C 329.797 305.283,342.894 286.626,348.619 273.364 L 349.271 271.853 338.160 252.614 L 327.049 233.375 241.587 233.315 L 156.125 233.254 146.375 250.152 C 141.012 259.446,136.588 267.151,136.542 267.275 C 136.492 267.408,172.435 267.500,224.628 267.500 L 312.798 267.500 312.110 268.688 C 287.327 311.475,237.656 337.846,188.113 334.520 C 102.967 328.803,44.551 248.669,65.538 166.375 C 80.276 108.583,131.675 67.151,191.200 65.079 C 194.194 64.975,195.785 65.005,195.722 65.165 C 195.669 65.300,175.915 99.551,151.824 141.279 C 127.734 183.007,107.950 217.340,107.860 217.574 C 107.706 217.974,110.602 218.000,156.161 217.999 L 204.625 217.997 223.000 186.131 C 233.106 168.604,241.458 154.289,241.560 154.319 C 241.662 154.350,245.547 160.956,250.193 169.000 L 258.640 183.625 250.258 183.695 L 241.875 183.765 232.125 200.664 C 226.762 209.957,222.338 217.660,222.292 217.781 C 222.244 217.906,242.760 218.000,270.104 218.000 C 296.447 218.000,318.000 217.932,318.000 217.850 C 318.000 217.590,241.658 85.500,241.513 85.508 C 240.904 85.545,187.574 178.890,188.074 179.044 C 188.377 179.137,196.324 180.206,205.733 181.419 L 222.842 183.625 208.940 183.690 C 201.294 183.725,188.741 183.725,181.045 183.690 L 167.051 183.625 199.696 127.125 C 218.330 94.873,232.346 70.357,232.354 70.000 C 232.382 68.741,210.496 31.324,209.625 31.140 C 208.779 30.962,187.558 30.756,185.625 30.907 M229.750 34.169 C 229.750 34.267,235.499 44.310,242.526 56.486 L 255.302 78.625 258.835 80.500 C 303.772 104.352,330.712 149.027,330.874 199.968 L 330.905 209.560 343.640 231.636 C 350.644 243.778,356.451 253.636,356.544 253.543 C 357.211 252.879,360.921 238.962,362.221 232.250 C 366.334 211.010,366.297 187.655,362.117 166.804 C 349.016 101.439,298.793 49.676,234.250 35.018 C 232.394 34.596,230.622 34.192,230.313 34.121 C 230.003 34.049,229.750 34.071,229.750 34.169 M105.125 233.604 C 89.207 237.288,86.540 258.715,101.125 265.741 C 116.865 273.324,132.556 255.312,122.884 240.763 C 119.124 235.107,111.650 232.094,105.125 233.604 " stroke="none" fill="#fc7c04" fill-rule="evenodd"></path><path id="path1" d="M186.930 179.928 C 186.606 180.449,185.975 181.522,185.527 182.313 L 184.713 183.750 203.794 183.716 C 214.289 183.697,222.650 183.640,222.375 183.588 C 222.100 183.537,214.506 182.542,205.500 181.377 C 196.494 180.213,188.764 179.197,188.322 179.120 C 187.600 178.995,187.459 179.077,186.930 179.928 " stroke="none" fill="#944404" fill-rule="evenodd"></path></g></svg>